<svg width="592" height="592" viewBox="0 0 592 592" fill="none" xmlns="http://www.w3.org/2000/svg">
<path d="M9.68731 0.100098H580.423C582.977 0.100098 585.427 1.88883 587.233 5.07299C589.04 8.25697 590.055 12.5755 590.055 17.0786V590.1H0.0546875V17.0786C0.0546875 12.5755 1.0695 8.25697 2.876 5.07299C4.68249 1.88883 7.1326 0.100098 9.68731 0.100098Z" fill="white"/>
<path d="M9.71955 1.30322H582.793C585.037 1.30322 587.19 2.87984 588.778 5.68612C590.364 8.49223 591.256 12.2983 591.256 16.2671V589.166C591.256 589.733 591.129 590.276 590.902 590.678C590.675 591.078 590.368 591.303 590.047 591.303H2.46547C2.14476 591.303 1.83733 591.078 1.61058 590.678C1.38383 590.276 1.25647 589.733 1.25647 589.166V16.2671C1.25647 12.2983 2.14808 8.49223 3.73523 5.68612C5.32238 2.87984 7.47499 1.30322 9.71955 1.30322Z" stroke="#566779"/>
<path opacity="0.1" d="M9.64895 0H581.352C583.911 0 586.364 1.01139 588.174 2.8118C589.983 4.6121 591 7.05392 591 9.60005V72H0V9.60005C0 7.05392 1.01653 4.6121 2.82609 2.8118C4.63565 1.01139 7.08991 0 9.64895 0Z" fill="#566779"/>
<path d="M180.109 33.7935H156.072V41.0135H180.109V33.7935Z" fill="#5081F5"/>
<path opacity="0.3" d="M228.181 33.7935H204.145V41.0135H228.181V33.7935Z" fill="#566779"/>
<path opacity="0.3" d="M266.639 33.7935H242.603V41.0135H266.639V33.7935Z" fill="#566779"/>
<path opacity="0.3" d="M305.098 33.7935H281.061V41.0135H305.098V33.7935Z" fill="#566779"/>
<path opacity="0.3" d="M343.556 33.7935H319.519V41.0135H343.556V33.7935Z" fill="#566779"/>
<path opacity="0.3" d="M382.014 33.7935H357.978V41.0135H382.014V33.7935Z" fill="#566779"/>
<path opacity="0.3" d="M420.472 33.7935H396.436V41.0135H420.472V33.7935Z" fill="#566779"/>
<path opacity="0.3" d="M523.829 28.98H446.912V48.2333H523.829V28.98Z" fill="#566779"/>
<path d="M511.81 36.2002H458.93V41.0135H511.81V36.2002Z" fill="white"/>
<path d="M553.673 41.0655C555.894 38.8408 555.894 35.234 553.673 33.0093C551.451 30.7847 547.848 30.7847 545.626 33.0093C543.405 35.234 543.405 38.8408 545.626 41.0655C547.848 43.2901 551.451 43.2901 553.673 41.0655Z" fill="white"/>
<path d="M553.248 40.6403C555.235 38.6507 555.235 35.4247 553.248 33.4351C551.26 31.4454 548.039 31.4454 546.051 33.4351C544.064 35.4247 544.064 38.6507 546.051 40.6403C548.039 42.63 551.26 42.63 553.248 40.6403Z" stroke="#566779" stroke-width="0.5"/>
<path d="M552.333 39.7231L557.697 45.0939" stroke="#566779" stroke-width="0.5"/>
<path opacity="0.5" d="M94.998 14.54H46.9255C38.2968 14.54 31.3018 21.5438 31.3018 30.1834C31.3018 38.8229 38.2968 45.8267 46.9255 45.8267H94.998C103.627 45.8267 110.622 38.8229 110.622 30.1834C110.622 21.5438 103.627 14.54 94.998 14.54Z" fill="#566779"/>
<path opacity="0.3" d="M110.622 50.6401H33.7054V57.8601H110.622V50.6401Z" fill="#566779"/>
<path d="M51.523 26.3535H48.8091V21.4521H49.6226V25.6665H51.523V26.3535ZM54.0421 26.4355C53.3357 26.4355 52.7694 26.2065 52.3433 25.7485C51.9195 25.2905 51.7076 24.6947 51.7076 23.9609C51.7076 23.1725 51.9241 22.5436 52.357 22.0742C52.7899 21.6048 53.3778 21.3701 54.1207 21.3701C54.8088 21.3701 55.3625 21.598 55.7818 22.0537C56.2033 22.5094 56.4141 23.1053 56.4141 23.8413C56.4141 24.6411 56.1988 25.2734 55.7681 25.7383C55.3375 26.2031 54.7621 26.4355 54.0421 26.4355ZM54.0797 22.0845C53.6308 22.0845 53.265 22.252 52.9825 22.5869C52.7022 22.9219 52.5621 23.3628 52.5621 23.9097C52.5621 24.4543 52.6988 24.8929 52.9722 25.2256C53.2457 25.5583 53.6034 25.7246 54.0455 25.7246C54.5149 25.7246 54.8852 25.5662 55.1563 25.2495C55.4275 24.9328 55.563 24.4896 55.563 23.9199C55.563 23.3343 55.4309 22.882 55.1666 22.563C54.9045 22.244 54.5422 22.0845 54.0797 22.0845ZM61.1378 26.0186C60.6273 26.2965 60.0588 26.4355 59.4322 26.4355C58.7076 26.4355 58.1208 26.21 57.6719 25.7588C57.223 25.3076 56.9986 24.7106 56.9986 23.9678C56.9986 23.209 57.2436 22.5869 57.7335 22.1016C58.2256 21.6139 58.85 21.3701 59.6065 21.3701C60.1511 21.3701 60.6091 21.4499 60.9805 21.6094V22.4468C60.6046 22.1961 60.1568 22.0708 59.6373 22.0708C59.1155 22.0708 58.6871 22.2428 58.3521 22.5869C58.0194 22.931 57.8531 23.3765 57.8531 23.9233C57.8531 24.4862 57.9966 24.9294 58.2838 25.2529C58.5709 25.5742 58.9605 25.7349 59.4527 25.7349C59.7899 25.7349 60.0816 25.6699 60.3277 25.54V24.3745H59.2955V23.6909H61.1378V26.0186ZM64.214 26.4355C63.5075 26.4355 62.9413 26.2065 62.5152 25.7485C62.0914 25.2905 61.8795 24.6947 61.8795 23.9609C61.8795 23.1725 62.0959 22.5436 62.5289 22.0742C62.9618 21.6048 63.5497 21.3701 64.293 21.3701C64.981 21.3701 65.534 21.598 65.954 22.0537C66.375 22.5094 66.586 23.1053 66.586 23.8413C66.586 24.6411 66.371 25.2734 65.94 25.7383C65.509 26.2031 64.934 26.4355 64.214 26.4355ZM64.252 22.0845C63.8026 22.0845 63.4369 22.252 63.1544 22.5869C62.8741 22.9219 62.7339 23.3628 62.7339 23.9097C62.7339 24.4543 62.8707 24.8929 63.1441 25.2256C63.4175 25.5583 63.7753 25.7246 64.217 25.7246C64.687 25.7246 65.057 25.5662 65.328 25.2495C65.599 24.9328 65.735 24.4896 65.735 23.9199C65.735 23.3343 65.603 22.882 65.338 22.563C65.076 22.244 64.714 22.0845 64.252 22.0845Z" fill="white"/>
</svg>
