<svg width="592" height="592" viewBox="0 0 592 592" fill="none" xmlns="http://www.w3.org/2000/svg">
<path d="M9.74179 0.100098H580.477C583.032 0.100098 585.481 1.88883 587.288 5.07299C589.094 8.25697 590.109 12.5755 590.109 17.0786V590.1H0.109131V17.0786C0.109131 12.5755 1.12401 8.25697 2.93047 5.07299C4.73694 1.88883 7.18705 0.100098 9.74179 0.100098Z" fill="white"/>
<path d="M9.77592 1.30322H582.85C585.094 1.30322 587.247 2.87984 588.834 5.68612C590.422 8.49223 591.313 12.2983 591.313 16.2671V589.166C591.313 589.733 591.185 590.276 590.959 590.678C590.732 591.078 590.425 591.303 590.104 591.303H2.52183C2.20121 591.303 1.89363 591.078 1.66692 590.678C1.44021 590.276 1.31274 589.733 1.31274 589.166V16.2671C1.31274 12.2983 2.20441 8.49223 3.79158 5.68612C5.37874 2.87984 7.53133 1.30322 9.77592 1.30322Z" stroke="#566779"/>
<path opacity="0.1" d="M9.73823 0.100098H580.262C582.816 0.100098 585.265 1.1143 587.071 2.9197C588.876 4.725 589.891 7.1736 589.891 9.7268V72.3H0.109131V9.7268C0.109131 7.1736 1.12363 4.725 2.92943 2.9197C4.73523 1.1143 7.18443 0.100098 9.73823 0.100098Z" fill="#566779"/>
<path d="M180.435 33.7935H156.363V41.0135H180.435V33.7935Z" fill="#5081F5"/>
<path opacity="0.3" d="M228.581 33.7935H204.508V41.0135H228.581V33.7935Z" fill="#566779"/>
<path opacity="0.3" d="M267.097 33.7935H243.024V41.0135H267.097V33.7935Z" fill="#566779"/>
<path opacity="0.3" d="M305.614 33.7935H281.541V41.0135H305.614V33.7935Z" fill="#566779"/>
<path opacity="0.3" d="M344.13 33.7935H320.057V41.0135H344.13V33.7935Z" fill="#566779"/>
<path opacity="0.3" d="M382.646 33.7935H358.573V41.0135H382.646V33.7935Z" fill="#566779"/>
<path opacity="0.3" d="M421.163 33.7935H397.09V41.0135H421.163V33.7935Z" fill="#566779"/>
<path opacity="0.3" d="M524.675 28.98H447.643V48.2333H524.675V28.98Z" fill="#566779"/>
<path d="M512.639 36.2002H459.679V41.0135H512.639V36.2002Z" fill="white"/>
<path d="M554.564 41.0655C556.79 38.8408 556.79 35.234 554.564 33.0093C552.339 30.7847 548.731 30.7847 546.506 33.0093C544.281 35.234 544.281 38.8408 546.506 41.0655C548.731 43.2901 552.339 43.2901 554.564 41.0655Z" fill="white"/>
<path d="M554.139 40.6404C556.129 38.6508 556.129 35.4248 554.139 33.4351C552.148 31.4455 548.922 31.4455 546.932 33.4351C544.941 35.4248 544.941 38.6508 546.932 40.6404C548.922 42.6301 552.148 42.6301 554.139 40.6404Z" stroke="#566779" stroke-width="0.5"/>
<path d="M553.223 39.7231L558.595 45.0939" stroke="#566779" stroke-width="0.5"/>
<path opacity="0.5" d="M95.1961 14.54H47.0509C38.4092 14.54 31.4037 21.5438 31.4037 30.1834C31.4037 38.8229 38.4092 45.8267 47.0509 45.8267H95.1961C103.838 45.8267 110.844 38.8229 110.844 30.1834C110.844 21.5438 103.838 14.54 95.1961 14.54Z" fill="#566779"/>
<path opacity="0.3" d="M110.844 50.6401H33.8108V57.8601H110.844V50.6401Z" fill="#566779"/>
<path d="M51.6504 26.3535H48.9365V21.4521H49.75V25.6665H51.6504V26.3535ZM54.1694 26.4355C53.4631 26.4355 52.8968 26.2065 52.4707 25.7485C52.0469 25.2905 51.835 24.6947 51.835 23.9609C51.835 23.1725 52.0514 22.5436 52.4844 22.0742C52.9173 21.6048 53.5052 21.3701 54.248 21.3701C54.9362 21.3701 55.4899 21.598 55.9092 22.0537C56.3307 22.5094 56.5415 23.1053 56.5415 23.8413C56.5415 24.6411 56.3262 25.2734 55.8955 25.7383C55.4648 26.2031 54.8895 26.4355 54.1694 26.4355ZM54.207 22.0845C53.7581 22.0845 53.3924 22.252 53.1099 22.5869C52.8296 22.9219 52.6895 23.3628 52.6895 23.9097C52.6895 24.4543 52.8262 24.8929 53.0996 25.2256C53.373 25.5583 53.7308 25.7246 54.1729 25.7246C54.6423 25.7246 55.0125 25.5662 55.2837 25.2495C55.5549 24.9328 55.6904 24.4896 55.6904 23.9199C55.6904 23.3343 55.5583 22.882 55.2939 22.563C55.0319 22.244 54.6696 22.0845 54.207 22.0845ZM61.2651 26.0186C60.7547 26.2965 60.1862 26.4355 59.5596 26.4355C58.835 26.4355 58.2482 26.21 57.7993 25.7588C57.3504 25.3076 57.126 24.7106 57.126 23.9678C57.126 23.209 57.3709 22.5869 57.8608 22.1016C58.353 21.6139 58.9774 21.3701 59.7339 21.3701C60.2785 21.3701 60.7365 21.4499 61.1079 21.6094V22.4468C60.7319 22.1961 60.2842 22.0708 59.7646 22.0708C59.2428 22.0708 58.8145 22.2428 58.4795 22.5869C58.1468 22.931 57.9805 23.3765 57.9805 23.9233C57.9805 24.4862 58.124 24.9294 58.4111 25.2529C58.6982 25.5742 59.0879 25.7349 59.5801 25.7349C59.9173 25.7349 60.209 25.6699 60.4551 25.54V24.3745H59.4229V23.6909H61.2651V26.0186ZM64.341 26.4355C63.6349 26.4355 63.0687 26.2065 62.6426 25.7485C62.2188 25.2905 62.0068 24.6947 62.0068 23.9609C62.0068 23.1725 62.2233 22.5436 62.6562 22.0742C63.0892 21.6048 63.6771 21.3701 64.42 21.3701C65.108 21.3701 65.662 21.598 66.081 22.0537C66.503 22.5094 66.713 23.1053 66.713 23.8413C66.713 24.6411 66.498 25.2734 66.067 25.7383C65.637 26.2031 65.061 26.4355 64.341 26.4355ZM64.379 22.0845C63.93 22.0845 63.5643 22.252 63.2817 22.5869C63.0015 22.9219 62.8613 23.3628 62.8613 23.9097C62.8613 24.4543 62.998 24.8929 63.2715 25.2256C63.5449 25.5583 63.9027 25.7246 64.345 25.7246C64.814 25.7246 65.184 25.5662 65.456 25.2495C65.727 24.9328 65.862 24.4896 65.862 23.9199C65.862 23.3343 65.73 22.882 65.466 22.563C65.204 22.244 64.841 22.0845 64.379 22.0845Z" fill="white"/>
<path opacity="0.9" d="M185.25 48.2334H151.548V50.6401H185.25V48.2334Z" fill="#5081F5"/>
</svg>
