<svg width="592" height="592" viewBox="0 0 592 592" fill="none" xmlns="http://www.w3.org/2000/svg">
<path d="M9.63266 0.100098H580.367C582.922 0.100098 585.372 1.88883 587.179 5.07299C588.985 8.25697 590 12.5755 590 17.0786V590.1H0V17.0786C0 12.5755 1.01487 8.25697 2.82134 5.07299C4.62781 1.88883 7.07792 0.100098 9.63266 0.100098Z" fill="white"/>
<path d="M9.66679 1.30322H582.741C584.985 1.30322 587.137 2.87984 588.725 5.68612C590.313 8.49223 591.204 12.2983 591.204 16.2671V589.166C591.204 589.733 591.076 590.276 590.85 590.678C590.623 591.078 590.316 591.303 589.995 591.303H2.4127C2.09208 591.303 1.7845 591.078 1.55779 590.678C1.33108 590.276 1.20361 589.733 1.20361 589.166V16.2671C1.20361 12.2983 2.09528 8.49223 3.68245 5.68612C5.26961 2.87984 7.4222 1.30322 9.66679 1.30322Z" stroke="#566779"/>
<path opacity="0.1" d="M9.63266 0.100098H580.367C582.922 0.100098 585.372 1.1143 587.179 2.9197C588.985 4.725 590 7.1736 590 9.7268V72.3H0V9.7268C0 7.1736 1.01487 4.725 2.82134 2.9197C4.62781 1.1143 7.07792 0.100098 9.63266 0.100098Z" fill="#566779"/>
<path d="M189.956 28.98H146.625V45.8266H189.956V28.98Z" fill="#5081F5"/>
<path d="M180.326 33.7935H156.254V41.0135H180.326V33.7935Z" fill="white"/>
<path opacity="0.3" d="M228.472 33.7935H204.399V41.0135H228.472V33.7935Z" fill="#566779"/>
<path opacity="0.3" d="M266.988 33.7935H242.916V41.0135H266.988V33.7935Z" fill="#566779"/>
<path opacity="0.3" d="M305.505 33.7935H281.432V41.0135H305.505V33.7935Z" fill="#566779"/>
<path opacity="0.3" d="M344.021 33.7935H319.948V41.0135H344.021V33.7935Z" fill="#566779"/>
<path opacity="0.3" d="M382.537 33.7935H358.465V41.0135H382.537V33.7935Z" fill="#566779"/>
<path opacity="0.3" d="M421.054 33.7935H396.981V41.0135H421.054V33.7935Z" fill="#566779"/>
<path opacity="0.3" d="M524.566 28.98H447.534V48.2333H524.566V28.98Z" fill="#566779"/>
<path d="M512.53 36.2002H459.57V41.0135H512.53V36.2002Z" fill="white"/>
<path d="M554.456 41.0655C556.681 38.8408 556.681 35.234 554.456 33.0093C552.23 30.7847 548.623 30.7847 546.397 33.0093C544.172 35.234 544.172 38.8408 546.397 41.0655C548.623 43.2901 552.23 43.2901 554.456 41.0655Z" fill="white"/>
<path d="M554.03 40.6404C556.02 38.6508 556.02 35.4248 554.03 33.4351C552.04 31.4455 548.813 31.4455 546.823 33.4351C544.833 35.4248 544.833 38.6508 546.823 40.6404C548.813 42.6301 552.04 42.6301 554.03 40.6404Z" stroke="#566779" stroke-width="0.5"/>
<path d="M553.114 39.7231L558.486 45.0939" stroke="#566779" stroke-width="0.5"/>
<path opacity="0.5" d="M95.0869 14.54H46.9419C38.3001 14.54 31.2946 21.5438 31.2946 30.1834C31.2946 38.8229 38.3001 45.8267 46.9419 45.8267H95.0869C103.729 45.8267 110.735 38.8229 110.735 30.1834C110.735 21.5438 103.729 14.54 95.0869 14.54Z" fill="#566779"/>
<path opacity="0.3" d="M110.735 50.6401H33.7018V57.8601H110.735V50.6401Z" fill="#566779"/>
<path d="M51.5413 26.3535H48.8274V21.4521H49.6409V25.6665H51.5413V26.3535ZM54.0603 26.4355C53.354 26.4355 52.7877 26.2065 52.3616 25.7485C51.9378 25.2905 51.7259 24.6947 51.7259 23.9609C51.7259 23.1725 51.9423 22.5436 52.3753 22.0742C52.8082 21.6048 53.3961 21.3701 54.1389 21.3701C54.8271 21.3701 55.3808 21.598 55.8001 22.0537C56.2216 22.5094 56.4324 23.1053 56.4324 23.8413C56.4324 24.6411 56.2171 25.2734 55.7864 25.7383C55.3557 26.2031 54.7804 26.4355 54.0603 26.4355ZM54.0979 22.0845C53.649 22.0845 53.2833 22.252 53.0008 22.5869C52.7205 22.9219 52.5804 23.3628 52.5804 23.9097C52.5804 24.4543 52.7171 24.8929 52.9905 25.2256C53.2639 25.5583 53.6217 25.7246 54.0638 25.7246C54.5332 25.7246 54.9034 25.5662 55.1746 25.2495C55.4458 24.9328 55.5813 24.4896 55.5813 23.9199C55.5813 23.3343 55.4492 22.882 55.1848 22.563C54.9228 22.244 54.5605 22.0845 54.0979 22.0845ZM61.156 26.0186C60.6456 26.2965 60.0771 26.4355 59.4505 26.4355C58.7259 26.4355 58.1391 26.21 57.6902 25.7588C57.2413 25.3076 57.0169 24.7106 57.0169 23.9678C57.0169 23.209 57.2618 22.5869 57.7517 22.1016C58.2439 21.6139 58.8683 21.3701 59.6248 21.3701C60.1694 21.3701 60.6274 21.4499 60.9988 21.6094V22.4468C60.6228 22.1961 60.1751 22.0708 59.6555 22.0708C59.1337 22.0708 58.7054 22.2428 58.3704 22.5869C58.0377 22.931 57.8714 23.3765 57.8714 23.9233C57.8714 24.4862 58.0149 24.9294 58.302 25.2529C58.5891 25.5742 58.9788 25.7349 59.471 25.7349C59.8082 25.7349 60.0999 25.6699 60.346 25.54V24.3745H59.3138V23.6909H61.156V26.0186ZM64.2319 26.4355C63.5258 26.4355 62.9596 26.2065 62.5335 25.7485C62.1097 25.2905 61.8977 24.6947 61.8977 23.9609C61.8977 23.1725 62.1142 22.5436 62.5471 22.0742C62.9801 21.6048 63.568 21.3701 64.3109 21.3701C64.9989 21.3701 65.5529 21.598 65.9719 22.0537C66.3939 22.5094 66.6039 23.1053 66.6039 23.8413C66.6039 24.6411 66.3889 25.2734 65.9579 25.7383C65.5279 26.2031 64.9519 26.4355 64.2319 26.4355ZM64.2699 22.0845C63.8209 22.0845 63.4552 22.252 63.1726 22.5869C62.8924 22.9219 62.7522 23.3628 62.7522 23.9097C62.7522 24.4543 62.8889 24.8929 63.1624 25.2256C63.4358 25.5583 63.7936 25.7246 64.2359 25.7246C64.7049 25.7246 65.0749 25.5662 65.3469 25.2495C65.6179 24.9328 65.7529 24.4896 65.7529 23.9199C65.7529 23.3343 65.6209 22.882 65.3569 22.563C65.0949 22.244 64.7319 22.0845 64.2699 22.0845Z" fill="white"/>
</svg>
