<svg width="592" height="592" viewBox="0 0 592 592" fill="none" xmlns="http://www.w3.org/2000/svg">
<path d="M9.74179 0.100098H580.477C583.032 0.100098 585.481 1.88883 587.288 5.07299C589.094 8.25697 590.109 12.5755 590.109 17.0786V590.1H0.109131V17.0786C0.109131 12.5755 1.12401 8.25697 2.93047 5.07299C4.73694 1.88883 7.18705 0.100098 9.74179 0.100098Z" fill="white"/>
<path d="M9.77581 1.30322H582.85C585.094 1.30322 587.247 2.87984 588.834 5.68612C590.422 8.49223 591.313 12.2983 591.313 16.2671V589.166C591.313 589.733 591.185 590.276 590.959 590.678C590.732 591.078 590.425 591.303 590.104 591.303H2.52172C2.2011 591.303 1.89353 591.078 1.66682 590.678C1.44011 590.276 1.31274 589.733 1.31274 589.166V16.2671C1.31274 12.2983 2.20441 8.49223 3.79148 5.68612C5.37864 2.87984 7.53132 1.30322 9.77581 1.30322Z" stroke="#566779"/>
<path opacity="0.1" d="M9.73823 0.100098H580.262C582.816 0.100098 585.265 1.1143 587.071 2.9197C588.876 4.725 589.891 7.1736 589.891 9.7268V72.3H0.109131V9.7268C0.109131 7.1736 1.12363 4.725 2.92943 2.9197C4.73523 1.1143 7.18443 0.100098 9.73823 0.100098Z" fill="#566779"/>
<path opacity="0.2" d="M190.065 2.50684H146.734V72.3H190.065V2.50684Z" fill="#5081F5"/>
<path d="M180.435 33.7935H156.363V41.0135H180.435V33.7935Z" fill="#5081F5"/>
<path opacity="0.3" d="M228.581 33.7935H204.508V41.0135H228.581V33.7935Z" fill="#566779"/>
<path opacity="0.3" d="M267.097 33.7935H243.025V41.0135H267.097V33.7935Z" fill="#566779"/>
<path opacity="0.3" d="M305.614 33.7935H281.541V41.0135H305.614V33.7935Z" fill="#566779"/>
<path opacity="0.3" d="M344.13 33.7935H320.057V41.0135H344.13V33.7935Z" fill="#566779"/>
<path opacity="0.3" d="M382.646 33.7935H358.574V41.0135H382.646V33.7935Z" fill="#566779"/>
<path opacity="0.3" d="M421.163 33.7935H397.09V41.0135H421.163V33.7935Z" fill="#566779"/>
<path opacity="0.3" d="M524.675 28.98H447.643V48.2333H524.675V28.98Z" fill="#566779"/>
<path d="M512.639 36.2002H459.679V41.0135H512.639V36.2002Z" fill="white"/>
<path d="M554.565 41.0655C556.79 38.8408 556.79 35.234 554.565 33.0093C552.339 30.7847 548.732 30.7847 546.506 33.0093C544.281 35.234 544.281 38.8408 546.506 41.0655C548.732 43.2901 552.339 43.2901 554.565 41.0655Z" fill="white"/>
<path d="M554.139 40.6404C556.129 38.6508 556.129 35.4248 554.139 33.4351C552.149 31.4455 548.922 31.4455 546.932 33.4351C544.942 35.4248 544.942 38.6508 546.932 40.6404C548.922 42.6301 552.149 42.6301 554.139 40.6404Z" stroke="#566779" stroke-width="0.5"/>
<path d="M553.223 39.7231L558.595 45.0939" stroke="#566779" stroke-width="0.5"/>
<path opacity="0.5" d="M95.196 16.9468H47.0509C38.4091 16.9468 31.4036 23.9505 31.4036 32.5901C31.4036 41.2297 38.4091 48.2335 47.0509 48.2335H95.196C103.838 48.2335 110.844 41.2297 110.844 32.5901C110.844 23.9505 103.838 16.9468 95.196 16.9468Z" fill="#566779"/>
<path opacity="0.3" d="M110.844 53.0469H33.8109V60.2669H110.844V53.0469Z" fill="#566779"/>
<path d="M51.6504 28.7603H48.9365V23.8589H49.75V28.0732H51.6504V28.7603ZM54.1694 28.8423C53.4631 28.8423 52.8968 28.6133 52.4707 28.1553C52.0469 27.6973 51.835 27.1014 51.835 26.3677C51.835 25.5793 52.0514 24.9504 52.4844 24.481C52.9173 24.0116 53.5052 23.7769 54.248 23.7769C54.9362 23.7769 55.4899 24.0047 55.9092 24.4604C56.3307 24.9162 56.5415 25.512 56.5415 26.248C56.5415 27.0479 56.3262 27.6802 55.8955 28.145C55.4648 28.6099 54.8895 28.8423 54.1694 28.8423ZM54.207 24.4912C53.7581 24.4912 53.3924 24.6587 53.1099 24.9937C52.8296 25.3286 52.6895 25.7695 52.6895 26.3164C52.6895 26.861 52.8262 27.2996 53.0996 27.6323C53.373 27.965 53.7308 28.1313 54.1729 28.1313C54.6423 28.1313 55.0125 27.973 55.2837 27.6562C55.5549 27.3395 55.6904 26.8963 55.6904 26.3267C55.6904 25.741 55.5583 25.2887 55.2939 24.9697C55.0319 24.6507 54.6696 24.4912 54.207 24.4912ZM61.2651 28.4253C60.7547 28.7033 60.1862 28.8423 59.5596 28.8423C58.835 28.8423 58.2482 28.6167 57.7993 28.1655C57.3504 27.7144 57.126 27.1174 57.126 26.3745C57.126 25.6157 57.3709 24.9937 57.8608 24.5083C58.353 24.0207 58.9774 23.7769 59.7339 23.7769C60.2785 23.7769 60.7365 23.8566 61.1079 24.0161V24.8535C60.7319 24.6029 60.2842 24.4775 59.7646 24.4775C59.2428 24.4775 58.8145 24.6496 58.4795 24.9937C58.1468 25.3377 57.9805 25.7832 57.9805 26.3301C57.9805 26.8929 58.124 27.3361 58.4111 27.6597C58.6982 27.981 59.0879 28.1416 59.5801 28.1416C59.9173 28.1416 60.209 28.0767 60.4551 27.9468V26.7812H59.4229V26.0977H61.2651V28.4253ZM64.341 28.8423C63.6349 28.8423 63.0687 28.6133 62.6426 28.1553C62.2188 27.6973 62.0068 27.1014 62.0068 26.3677C62.0068 25.5793 62.2233 24.9504 62.6562 24.481C63.0892 24.0116 63.6771 23.7769 64.42 23.7769C65.108 23.7769 65.662 24.0047 66.081 24.4604C66.503 24.9162 66.713 25.512 66.713 26.248C66.713 27.0479 66.498 27.6802 66.067 28.145C65.637 28.6099 65.061 28.8423 64.341 28.8423ZM64.379 24.4912C63.93 24.4912 63.5643 24.6587 63.2817 24.9937C63.0015 25.3286 62.8613 25.7695 62.8613 26.3164C62.8613 26.861 62.998 27.2996 63.2715 27.6323C63.5449 27.965 63.9027 28.1313 64.345 28.1313C64.814 28.1313 65.184 27.973 65.456 27.6562C65.727 27.3395 65.862 26.8963 65.862 26.3267C65.862 25.741 65.73 25.2887 65.466 24.9697C65.204 24.6507 64.841 24.4912 64.379 24.4912Z" fill="white"/>
<path opacity="0.9" d="M190.065 69.894H146.734V72.3H190.065V69.894Z" fill="#5081F5"/>
</svg>
