<svg xmlns="http://www.w3.org/2000/svg" xmlns:xlink="http://www.w3.org/1999/xlink" width="1125" viewBox="0 0 1125 1125" height="1125" version="1.0"><defs><clipPath id="d"><path d="M 104 35 L 970 35 L 970 772 L 104 772 Z M 104 35"/></clipPath><clipPath id="e"><path d="M 9.042969 187.285156 L 965.300781 26.089844 L 1066.035156 623.660156 L 109.777344 784.855469 Z M 9.042969 187.285156"/></clipPath><clipPath id="f"><path d="M 9.042969 187.285156 L 965.300781 26.089844 L 1066.035156 623.660156 L 109.777344 784.855469 Z M 9.042969 187.285156"/></clipPath><clipPath id="c"><path d="M0 0H1074V807H0z"/></clipPath><filter x="0%" y="0%" width="100%" xmlns:xlink="http://www.w3.org/1999/xlink" xlink:type="simple" xlink:actuate="onLoad" height="100%" id="a" xlink:show="other"><feColorMatrix values="0 0 0 0 1 0 0 0 0 1 0 0 0 0 1 0 0 0 1 0" color-interpolation-filters="sRGB"/></filter><mask id="b"><g filter="url(#a)"><path fill-opacity=".686" d="M-112.5 -112.5H1237.5V1237.5H-112.5z"/></g></mask></defs><g mask="url(#b)"><g><g clip-path="url(#c)" transform="translate(25 157)"><g clip-path="url(#d)"><g clip-path="url(#e)"><g clip-path="url(#f)"><path fill="#FFF" d="M 867.378906 646.300781 L 127.644531 770.996094 C 126.871094 771.121094 126.089844 771.195312 125.304688 771.226562 C 124.519531 771.257812 123.734375 771.242188 122.953125 771.179688 C 122.167969 771.117188 121.390625 771.011719 120.621094 770.859375 C 119.851562 770.707031 119.089844 770.511719 118.34375 770.273438 C 117.597656 770.03125 116.867188 769.746094 116.152344 769.421875 C 115.4375 769.09375 114.742188 768.730469 114.070312 768.324219 C 113.398438 767.914062 112.753906 767.46875 112.132812 766.988281 C 111.515625 766.503906 110.925781 765.988281 110.363281 765.4375 C 109.804688 764.886719 109.28125 764.304688 108.789062 763.691406 C 108.296875 763.078125 107.84375 762.441406 107.425781 761.773438 C 107.011719 761.109375 106.632812 760.421875 106.296875 759.710938 C 105.960938 759 105.667969 758.273438 105.414062 757.53125 C 105.164062 756.785156 104.957031 756.03125 104.792969 755.261719 C 104.628906 754.496094 104.511719 753.71875 104.441406 752.9375 C 104.367188 752.15625 104.339844 751.371094 104.359375 750.585938 C 104.378906 749.800781 104.445312 749.019531 104.554688 748.242188 L 190.90625 177.058594 C 191.085938 176.039062 191.34375 175.042969 191.675781 174.0625 C 192.011719 173.082031 192.414062 172.132812 192.894531 171.214844 C 193.371094 170.300781 193.914062 169.421875 194.527344 168.589844 C 195.136719 167.753906 195.808594 166.96875 196.539062 166.238281 C 197.269531 165.503906 198.050781 164.832031 198.882812 164.21875 C 199.714844 163.605469 200.589844 163.058594 201.503906 162.578125 C 202.421875 162.097656 203.367188 161.6875 204.347656 161.351562 C 205.324219 161.015625 206.324219 160.757812 207.34375 160.570312 L 946.632812 35.949219 C 948.207031 35.679688 949.792969 35.601562 951.386719 35.714844 C 952.980469 35.828125 954.535156 36.128906 956.058594 36.617188 C 957.578125 37.105469 959.019531 37.765625 960.378906 38.601562 C 961.742188 39.4375 962.984375 40.421875 964.109375 41.554688 C 965.195312 42.679688 966.144531 43.910156 966.949219 45.25 C 967.757812 46.589844 968.398438 48.003906 968.878906 49.492188 C 969.359375 50.980469 969.664062 52.503906 969.792969 54.058594 C 969.921875 55.617188 969.875 57.171875 969.644531 58.71875 L 883.773438 629.324219 C 883.617188 630.363281 883.378906 631.382812 883.066406 632.386719 C 882.75 633.390625 882.359375 634.363281 881.894531 635.304688 C 881.429688 636.246094 880.894531 637.144531 880.289062 638.003906 C 879.683594 638.863281 879.015625 639.671875 878.285156 640.429688 C 877.554688 641.183594 876.773438 641.878906 875.933594 642.515625 C 875.097656 643.148438 874.214844 643.714844 873.289062 644.214844 C 872.363281 644.710938 871.40625 645.136719 870.414062 645.484375 C 869.425781 645.835938 868.414062 646.105469 867.378906 646.300781 Z M 867.378906 646.300781"/></g></g></g></g></g></g></svg>