<svg xmlns="http://www.w3.org/2000/svg" xmlns:xlink="http://www.w3.org/1999/xlink" width="1440" viewBox="0 0 1440 810" height="810" version="1.0"><defs><clipPath id="d"><path d="M 74 25 L 695 25 L 695 553 L 74 553 Z M 74 25"/></clipPath><clipPath id="e"><path d="M 6.089844 134.082031 L 691.667969 18.515625 L 763.851562 446.722656 L 78.273438 562.289062 Z M 6.089844 134.082031"/></clipPath><clipPath id="f"><path d="M 6.089844 134.082031 L 691.667969 18.515625 L 763.851562 446.722656 L 78.273438 562.289062 Z M 6.089844 134.082031"/></clipPath><clipPath id="c"><path d="M0 0H770V578H0z"/></clipPath><filter x="0%" y="0%" width="100%" xmlns:xlink="http://www.w3.org/1999/xlink" xlink:type="simple" xlink:actuate="onLoad" height="100%" id="a" xlink:show="other"><feColorMatrix values="0 0 0 0 1 0 0 0 0 1 0 0 0 0 1 0 0 0 1 0" color-interpolation-filters="sRGB"/></filter><mask id="b"><g filter="url(#a)"><path fill-opacity=".686" d="M-144 -81H1584V891H-144z"/></g></mask></defs><g mask="url(#b)"><g><g clip-path="url(#c)" transform="translate(12 115)"><g clip-path="url(#d)"><g clip-path="url(#e)"><g clip-path="url(#f)"><path fill="#FFF" d="M 621.429688 462.960938 L 91.085938 552.363281 C 90.527344 552.449219 89.96875 552.503906 89.40625 552.523438 C 88.84375 552.546875 88.28125 552.535156 87.71875 552.492188 C 87.160156 552.449219 86.601562 552.371094 86.050781 552.261719 C 85.496094 552.15625 84.953125 552.015625 84.417969 551.84375 C 83.878906 551.667969 83.355469 551.464844 82.84375 551.234375 C 82.332031 551 81.835938 550.738281 81.355469 550.445312 C 80.871094 550.152344 80.410156 549.835938 79.964844 549.488281 C 79.519531 549.144531 79.097656 548.773438 78.695312 548.378906 C 78.296875 547.984375 77.917969 547.566406 77.566406 547.128906 C 77.214844 546.6875 76.890625 546.230469 76.589844 545.753906 C 76.292969 545.277344 76.023438 544.785156 75.78125 544.273438 C 75.539062 543.765625 75.328125 543.246094 75.148438 542.710938 C 74.96875 542.179688 74.820312 541.636719 74.703125 541.085938 C 74.585938 540.535156 74.5 539.980469 74.449219 539.421875 C 74.398438 538.859375 74.378906 538.300781 74.390625 537.734375 C 74.40625 537.171875 74.453125 536.613281 74.53125 536.054688 L 136.472656 126.742188 C 136.601562 126.011719 136.785156 125.296875 137.023438 124.59375 C 137.265625 123.890625 137.554688 123.210938 137.898438 122.554688 C 138.238281 121.898438 138.628906 121.269531 139.066406 120.671875 C 139.503906 120.074219 139.988281 119.511719 140.511719 118.984375 C 141.035156 118.460938 141.59375 117.976562 142.191406 117.539062 C 142.789062 117.097656 143.414062 116.707031 144.070312 116.363281 C 144.730469 116.019531 145.40625 115.726562 146.109375 115.484375 C 146.8125 115.242188 147.527344 115.058594 148.257812 114.925781 L 678.28125 25.578125 C 679.410156 25.386719 680.546875 25.332031 681.6875 25.410156 C 682.832031 25.492188 683.949219 25.707031 685.039062 26.054688 C 686.128906 26.40625 687.160156 26.878906 688.136719 27.480469 C 689.113281 28.078125 690.003906 28.78125 690.808594 29.597656 C 691.589844 30.398438 692.269531 31.28125 692.847656 32.242188 C 693.425781 33.203125 693.886719 34.214844 694.230469 35.28125 C 694.574219 36.347656 694.792969 37.441406 694.886719 38.554688 C 694.976562 39.671875 694.941406 40.785156 694.777344 41.894531 L 633.183594 450.796875 C 633.070312 451.539062 632.902344 452.273438 632.675781 452.992188 C 632.449219 453.707031 632.167969 454.40625 631.835938 455.082031 C 631.5 455.753906 631.117188 456.402344 630.683594 457.015625 C 630.25 457.632812 629.769531 458.210938 629.246094 458.753906 C 628.722656 459.292969 628.160156 459.792969 627.5625 460.246094 C 626.960938 460.703125 626.328125 461.109375 625.664062 461.464844 C 625.003906 461.824219 624.316406 462.125 623.605469 462.378906 C 622.894531 462.628906 622.167969 462.824219 621.429688 462.960938 Z M 621.429688 462.960938"/></g></g></g></g></g></g></svg>