<svg xmlns="http://www.w3.org/2000/svg" xmlns:xlink="http://www.w3.org/1999/xlink" width="1125" viewBox="0 0 1125 1125" height="1125" version="1.0"><defs><clipPath id="d"><path d="M 33 5.25 L 649 5.25 L 649 1017.75 L 33 1017.75 Z M 33 5.25"/></clipPath><clipPath id="c"><path d="M0 0H682V1023H0z"/></clipPath><filter x="0%" y="0%" width="100%" xmlns:xlink="http://www.w3.org/1999/xlink" xlink:type="simple" xlink:actuate="onLoad" height="100%" id="a" xlink:show="other"><feColorMatrix values="0 0 0 0 1 0 0 0 0 1 0 0 0 0 1 0 0 0 1 0" color-interpolation-filters="sRGB"/></filter><mask id="b"><g filter="url(#a)"><path fill-opacity=".686" d="M-112.5 -112.5H1237.5V1237.5H-112.5z"/></g></mask></defs><g mask="url(#b)"><g><g clip-path="url(#c)" transform="translate(152 51)"><g clip-path="url(#d)"><path fill="#FFF" d="M 648.371094 809.292969 L 648.371094 26.054688 C 648.359375 25.234375 648.304688 24.417969 648.199219 23.601562 C 648.09375 22.789062 647.941406 21.984375 647.742188 21.191406 C 647.542969 20.394531 647.296875 19.613281 647.007812 18.847656 C 646.71875 18.078125 646.382812 17.332031 646.007812 16.601562 C 645.628906 15.875 645.210938 15.171875 644.75 14.492188 C 644.289062 13.8125 643.792969 13.164062 643.257812 12.542969 C 642.722656 11.921875 642.152344 11.332031 641.546875 10.777344 C 640.941406 10.222656 640.308594 9.707031 639.640625 9.226562 C 638.976562 8.746094 638.285156 8.308594 637.570312 7.90625 C 636.855469 7.507812 636.117188 7.152344 635.359375 6.835938 C 634.601562 6.523438 633.828125 6.253906 633.039062 6.03125 C 632.25 5.808594 631.449219 5.632812 630.640625 5.503906 C 629.828125 5.375 629.015625 5.292969 628.195312 5.257812 C 627.375 5.222656 626.554688 5.234375 625.738281 5.296875 C 624.917969 5.359375 624.109375 5.464844 623.300781 5.621094 C 622.496094 5.777344 621.703125 5.980469 620.921875 6.230469 L 47.582031 194.265625 C 46.566406 194.628906 45.582031 195.066406 44.628906 195.578125 C 43.679688 196.089844 42.773438 196.671875 41.910156 197.324219 C 41.046875 197.972656 40.242188 198.6875 39.488281 199.460938 C 38.734375 200.234375 38.042969 201.058594 37.414062 201.9375 C 36.785156 202.816406 36.230469 203.738281 35.742188 204.703125 C 35.253906 205.667969 34.84375 206.664062 34.507812 207.691406 C 34.171875 208.714844 33.914062 209.761719 33.738281 210.828125 C 33.5625 211.894531 33.46875 212.964844 33.457031 214.046875 L 33.457031 996.820312 C 33.453125 998.488281 33.648438 1000.132812 34.039062 1001.753906 C 34.433594 1003.371094 35.011719 1004.921875 35.777344 1006.40625 C 36.546875 1007.886719 37.476562 1009.253906 38.574219 1010.511719 C 39.671875 1011.769531 40.902344 1012.875 42.265625 1013.835938 C 43.609375 1014.761719 45.042969 1015.523438 46.5625 1016.121094 C 48.082031 1016.71875 49.648438 1017.136719 51.265625 1017.371094 C 52.882812 1017.609375 54.503906 1017.65625 56.132812 1017.519531 C 57.757812 1017.382812 59.347656 1017.0625 60.902344 1016.558594 L 633.730469 829.117188 C 634.773438 828.777344 635.785156 828.355469 636.761719 827.859375 C 637.738281 827.359375 638.671875 826.789062 639.5625 826.144531 C 640.453125 825.503906 641.285156 824.796875 642.066406 824.023438 C 642.847656 823.25 643.5625 822.425781 644.214844 821.542969 C 644.867188 820.660156 645.445312 819.730469 645.953125 818.757812 C 646.460938 817.785156 646.894531 816.78125 647.246094 815.742188 C 647.597656 814.703125 647.867188 813.640625 648.058594 812.5625 C 648.246094 811.480469 648.351562 810.390625 648.371094 809.292969 Z M 648.371094 809.292969"/></g></g></g></g></svg>