<svg xmlns="http://www.w3.org/2000/svg" xmlns:xlink="http://www.w3.org/1999/xlink" width="1440" viewBox="0 0 1440 810" height="810" version="1.0"><defs><clipPath id="d"><path d="M 75 27 L 754 27 L 754 591 L 75 591 Z M 75 27"/></clipPath><clipPath id="e"><path d="M 78.90625 20.316406 L 822.886719 136.519531 L 750.316406 601.132812 L 6.335938 484.933594 Z M 78.90625 20.316406"/></clipPath><clipPath id="f"><path d="M 822.664062 136.484375 L 78.6875 20.28125 L 6.117188 484.898438 L 750.097656 601.101562 Z M 822.664062 136.484375"/></clipPath><clipPath id="c"><path d="M0 0H829V618H0z"/></clipPath><filter x="0%" y="0%" width="100%" xmlns:xlink="http://www.w3.org/1999/xlink" xlink:type="simple" xlink:actuate="onLoad" height="100%" id="a" xlink:show="other"><feColorMatrix values="0 0 0 0 1 0 0 0 0 1 0 0 0 0 1 0 0 0 1 0" color-interpolation-filters="sRGB"/></filter><mask id="b"><g filter="url(#a)"><path fill-opacity=".686" d="M-144 -81H1584V891H-144z"/></g></mask></defs><g mask="url(#b)"><g><g clip-path="url(#c)" transform="translate(594 76)"><g clip-path="url(#d)"><g clip-path="url(#e)"><g clip-path="url(#f)"><path fill="#FFF" d="M 160.570312 500.625 L 736.09375 590.515625 C 736.695312 590.601562 737.300781 590.652344 737.910156 590.667969 C 738.523438 590.6875 739.128906 590.667969 739.738281 590.613281 C 740.34375 590.558594 740.945312 590.46875 741.542969 590.34375 C 742.140625 590.21875 742.726562 590.058594 743.308594 589.863281 C 743.886719 589.671875 744.449219 589.445312 745 589.183594 C 745.554688 588.925781 746.089844 588.632812 746.605469 588.3125 C 747.125 587.992188 747.621094 587.640625 748.097656 587.257812 C 748.574219 586.878906 749.027344 586.472656 749.457031 586.039062 C 749.886719 585.605469 750.289062 585.148438 750.664062 584.671875 C 751.039062 584.191406 751.386719 583.691406 751.703125 583.167969 C 752.019531 582.648438 752.304688 582.113281 752.5625 581.558594 C 752.816406 581.003906 753.035156 580.4375 753.226562 579.859375 C 753.414062 579.277344 753.566406 578.691406 753.6875 578.09375 C 753.804688 577.496094 753.890625 576.890625 753.9375 576.285156 C 753.988281 575.675781 754 575.070312 753.976562 574.460938 C 753.957031 573.851562 753.898438 573.246094 753.804688 572.644531 L 681.367188 130.234375 C 681.214844 129.445312 681.007812 128.675781 680.738281 127.917969 C 680.472656 127.160156 680.148438 126.429688 679.769531 125.722656 C 679.390625 125.011719 678.960938 124.339844 678.476562 123.695312 C 677.996094 123.054688 677.46875 122.453125 676.894531 121.890625 C 676.320312 121.328125 675.707031 120.8125 675.054688 120.347656 C 674.402344 119.878906 673.71875 119.460938 673 119.097656 C 672.285156 118.734375 671.546875 118.425781 670.78125 118.171875 C 670.019531 117.921875 669.242188 117.730469 668.449219 117.59375 L 93.273438 27.757812 C 92.046875 27.566406 90.816406 27.519531 89.582031 27.621094 C 88.34375 27.722656 87.140625 27.972656 85.964844 28.363281 C 84.789062 28.757812 83.675781 29.28125 82.625 29.945312 C 81.578125 30.605469 80.621094 31.378906 79.757812 32.269531 C 78.925781 33.152344 78.199219 34.117188 77.585938 35.164062 C 76.972656 36.210938 76.488281 37.3125 76.128906 38.472656 C 75.769531 39.632812 75.546875 40.816406 75.460938 42.027344 C 75.375 43.238281 75.429688 44.441406 75.621094 45.640625 L 147.679688 487.605469 C 147.8125 488.410156 148.007812 489.199219 148.261719 489.972656 C 148.515625 490.75 148.828125 491.5 149.199219 492.226562 C 149.566406 492.953125 149.992188 493.644531 150.46875 494.308594 C 150.949219 494.96875 151.472656 495.589844 152.046875 496.167969 C 152.621094 496.746094 153.238281 497.28125 153.894531 497.765625 C 154.550781 498.25 155.238281 498.679688 155.960938 499.058594 C 156.683594 499.4375 157.433594 499.757812 158.207031 500.019531 C 158.976562 500.28125 159.765625 500.484375 160.570312 500.625 Z M 160.570312 500.625"/></g></g></g></g></g></g></svg>