<svg xmlns="http://www.w3.org/2000/svg" viewBox="0 0 1085.04 402.84"><defs><style>.cls-1{fill:#fff;}.cls-2{fill:#1fabdb;}.cls-3{fill:#af3c8d;}.cls-4{fill:none;}.cls-5{fill:#eb6467;}</style></defs><title>Arke Logo_Wht&amp;amp;Colour</title><g id="Layer_2" data-name="Layer 2"><g id="Layer_1-2" data-name="Layer 1"><path class="cls-1" d="M179.83,395.78V364.57c-20,24.73-51.62,38.27-87.14,38.27C49.4,402.84,0,371.05,0,308.63c0-65.94,48.84-93,92.69-93,36.63,0,67.16,12.37,87.14,36.51V209.72c0-33-26.09-53-62.72-53-30,0-56.61,11.78-79.37,36.51l-24.42-43C44.41,118.43,83.26,104.3,126,104.3c59.94,0,112.12,26.49,112.12,102.45v189Zm0-64.77V287.42C166,268,141,258,116,258c-32.74,0-57.72,20.61-57.72,51.22,0,31.21,25,51.23,57.72,51.23,25,0,49.95-10,63.83-29.42Z"/><path class="cls-1" d="M438.94,98.69c-30.27,0-61.39,16-84.39,43.22V105.75H290.74V395.63h63.81V199.91c11.24-19.06,42.74-36.27,66.63-36.27a74.1,74.1,0,0,1,17.13,1.69l3.37.8V98.69Z"/><path class="cls-1" d="M1016.74,252.58c0-93.9-54-157-134.28-157-79.08,0-138.72,65.22-138.72,151.71,0,89.67,58.87,152.3,143.16,152.3,43.18,0,83.53-15.53,110.72-42.6l1.58-1.57L969.43,310l-2.38,2.53c-17.72,18.79-47,30.93-74.6,30.93-49.92,0-76.82-36.08-81.82-72.82h206.11ZM810,221c3.36-33.92,26.88-69.29,72-69.29C935,151.7,952.64,194,955,221Z"/><path class="cls-2" d="M548.49,396.42H466.86V0h81.63ZM479.3,384h56.75V12.42H479.3Z"/><path class="cls-3" d="M548.49,318.35H467l81.7-86.93ZM495,305.91h41V264Z"/><path class="cls-1" d="M1025,367.42a30,30,0,1,1,30,30A30,30,0,0,1,1025,367.42Zm6.1,0a23.92,23.92,0,1,0,23.92-23.92h0a23.9,23.9,0,0,0-23.91,23.91Z"/><path class="cls-1" d="M1041.9,351.05H1055a20.22,20.22,0,0,1,5.36.69,9.06,9.06,0,0,1,3.53,1.81,6.37,6.37,0,0,1,2,3.41,10.83,10.83,0,0,1-.1,5.76,6.79,6.79,0,0,1-3,3.89,10,10,0,0,1-2.37,1.09l-.17.06h.1a6.44,6.44,0,0,1,3.21,2.1,15.78,15.78,0,0,1,2.13,3.34l4.49,9,.07.15h-8.47a.2.2,0,0,1-.21-.15c-1.29-2.62-2.57-5.23-3.87-7.85a11.16,11.16,0,0,0-1.42-2.24,4.31,4.31,0,0,0-3-1.58c-1-.08-1.92,0-2.88-.07H1050v12h-8.1Zm8.11,14h3.6a7.59,7.59,0,0,0,2.07-.27,3,3,0,0,0,2.26-2.14,6,6,0,0,0,0-3.2,2.93,2.93,0,0,0-2.11-2.16,8.46,8.46,0,0,0-2.24-.3H1050Z"/><path class="cls-4" d="M1050,372v-8.07h3.61a8.46,8.46,0,0,1,2.24.3,2.93,2.93,0,0,1,2.11,2.16,6,6,0,0,1,0,3.2,3,3,0,0,1-2.26,2.14,7.59,7.59,0,0,1-2.07.27H1050Z"/><rect class="cls-2" x="536.17" y="318.36" width="12.32" height="4.52"/><path class="cls-3" d="M663.75,104.19l-127.47,141v73.16H548.5L579,285.83,749.39,104.19ZM548.72,300V250L669.27,116.71h51.39Z"/><path class="cls-5" d="M579.4,285.42l-35.58-48.55L590.68,185,628,233.58Zm-19.56-47.73L580.55,266l31.14-33.19-21.78-28.36Z"/><path class="cls-5" d="M757.3,396.84l-94.19-.33L571.92,275.2l48.43-51.61Zm-86.47-12.1H732L619.41,242.26l-31.35,32.53Z"/></g></g></svg>